<?xml version="1.0" encoding="UTF-8"?>
<svg width="37px" height="26px" viewBox="0 0 37 26" version="1.1" xmlns="http://www.w3.org/2000/svg" xmlns:xlink="http://www.w3.org/1999/xlink">
    <!-- Generator: Sketch 51.3 (57544) - http://www.bohemiancoding.com/sketch -->
    <title>Artboard</title>
    <desc>Created with Sketch.</desc>
    <defs></defs>
    <g id="Artboard" stroke="none" stroke-width="1" fill="none" fill-rule="evenodd">
        <g id="lyft-logo" fill="#A1A7B3" fill-rule="nonzero">
            <path d="M0,0.45373166 L5.57839413,0.45373166 L5.57839413,15.4248351 C5.57839413,17.7940752 6.66215401,19.2053755 7.51914084,19.810351 C6.61186309,20.6168614 3.83936781,21.3226043 1.77261546,19.6086307 C0.554127907,18.5983586 0,16.9370884 0,15.3743586 L0,0.45373166 Z M34.8627364,12.8898762 L34.8627364,11.3165686 L36.564091,11.3165686 L36.564091,5.79700186 L34.6957187,5.79700186 C33.97847,2.48318336 31.0281936,0 27.49985,0 C23.4351938,0 20.140304,3.29507539 20.140304,7.35954606 L20.140304,20.2494222 C21.298294,20.4121718 22.6778609,20.2291945 23.8516248,19.255852 C25.0699268,18.2453944 25.6240547,16.5843097 25.6240547,15.0215799 L25.6240547,14.5466926 L28.410097,14.5466926 L28.410097,9.0271259 L25.6240547,9.0271259 L25.6240547,7.35954606 L25.6307354,7.35954606 C25.6307354,6.32737613 26.4674945,5.49061701 27.49985,5.49061701 C28.53202,5.49061701 29.3721194,6.32737613 29.3721194,7.35954606 L29.3721194,12.8898762 C29.3721194,16.9543469 32.6705352,20.2494222 36.7350058,20.2494222 L36.7350058,14.7588052 C35.7028359,14.7588052 34.8627364,13.9220461 34.8627364,12.8898762 Z M13.7353573,5.79700186 L13.7353573,13.8975502 C13.7353573,14.3574058 13.3538145,14.7302266 12.8830099,14.7302266 C12.4122053,14.7302266 12.0306625,14.3574058 12.0306625,13.8975502 L12.0306625,5.79700186 L6.51091012,5.79700186 L6.51091012,15.3240677 C6.51091012,17.0378558 7.09213202,19.2053755 9.73713707,19.9111184 C12.3849257,20.6176037 13.9209327,19.1550846 13.9209327,19.1550846 C13.7810089,20.1185916 12.8735456,20.8243346 11.4117688,20.9755785 C10.3057398,21.0898929 8.89128476,20.7235672 8.18572739,20.4210794 L8.18572739,25.4685426 C9.98358109,25.9987313 11.8851714,26.1700173 13.7461207,25.8088877 C17.123406,25.1536212 19.2549241,22.330835 19.2549241,18.5753473 L19.2549241,5.79700186 L13.7353573,5.79700186 Z" id="logo_standard"></path>
        </g>
    </g>
</svg>