<?xml version="1.0" encoding="UTF-8"?>
<svg width="144px" height="22px" viewBox="0 0 144 22" version="1.1" xmlns="http://www.w3.org/2000/svg" xmlns:xlink="http://www.w3.org/1999/xlink">
    <!-- Generator: Sketch 51.3 (57544) - http://www.bohemiancoding.com/sketch -->
    <title>Artboard</title>
    <desc>Created with Sketch.</desc>
    <defs></defs>
    <g id="Artboard" stroke="none" stroke-width="1" fill="none" fill-rule="evenodd">
        <g id="surveymonkey-logo" fill="#A1A7B3" fill-rule="nonzero">
            <g id="_Group_" transform="translate(32.710526, 5.789474)">
                <path d="M0.115789474,10.3834211 L1.30842105,8.965 C2.38815789,9.9 3.465,10.4297368 4.86605263,10.4297368 C6.09052632,10.4297368 6.86342105,9.86526316 6.86342105,9.01131579 L6.86342105,8.97947368 C6.86342105,8.17473684 6.41184211,7.74052632 4.31894737,7.24263158 C1.91921053,6.66368421 0.555789474,5.95447368 0.555789474,3.87605263 L0.555789474,3.84421053 C0.555789474,1.91342105 2.16526316,0.576052632 4.40578947,0.576052632 C5.89469625,0.546199204 7.3452881,1.0492353 8.49605263,1.99447368 L7.43368421,3.50842105 C6.42052632,2.75289474 5.40736842,2.35052632 4.37394737,2.35052632 C3.21605263,2.35052632 2.53868421,2.94684211 2.53868421,3.68789474 L2.53868421,3.71973684 C2.53868421,4.58815789 3.05394737,4.97605263 5.21052632,5.49131579 C7.59289474,6.07026316 8.83473684,6.93868421 8.83473684,8.79131579 L8.83473684,8.82315789 C8.83473684,10.9334211 7.17605263,12.1897368 4.80815789,12.1897368 C3.07337097,12.1946038 1.39953003,11.5502628 0.115789474,10.3834211 Z" id="_Compound_Path_"></path>
                <path d="M10.1431579,8.93605263 L10.1431579,3.52578947 L12.0913158,3.52578947 L12.0913158,8.35710526 C12.0913158,9.67710526 12.7513158,10.4355263 13.9121053,10.4355263 C15.0728947,10.4355263 15.8284211,9.64526316 15.8284211,8.32236842 L15.8284211,3.52578947 L17.7765789,3.52578947 L17.7765789,12.0276316 L15.8284211,12.0276316 L15.8284211,11.1592105 C15.1442998,11.8894621 14.1697115,12.2759001 13.1710526,12.2128947 C11.2547368,12.2042105 10.1431579,10.9073684 10.1431579,8.93605263 Z" id="_Compound_Path_2"></path>
                <path d="M19.8607895,3.52578947 L21.8089474,3.52578947 L21.8089474,4.94421053 C22.3386842,3.67052632 23.3228947,3.3 24.8194737,3.36657895 L24.8194737,5.10342105 L24.7065789,5.10342105 C22.9986842,5.10342105 21.8118421,6.24394737 21.8118421,8.80289474 L21.8118421,12.0276316 L19.8636842,12.0276316 L19.8607895,3.52578947 Z" id="_Compound_Path_3"></path>
                <polygon id="_Compound_Path_4" points="25.5142105 3.52578947 27.6071053 3.52578947 29.8939474 9.44263158 32.2097368 3.52578947 34.2534211 3.52578947 30.7797368 12.0942105 29.0255263 12.0942105"></polygon>
                <path d="M34.2563158,7.80710526 L34.2563158,7.77526316 C34.2563158,5.34368421 35.9931579,3.34631579 38.4102632,3.34631579 C41.1168421,3.34631579 42.4860526,5.47105263 42.4860526,7.92 C42.4860526,8.09657895 42.4686842,8.27315789 42.4542105,8.46710526 L36.2044737,8.46710526 C36.4128947,9.85078947 37.3971053,10.6265789 38.6534211,10.6265789 C39.5349805,10.6339081 40.3776587,10.264183 40.9692105,9.61052632 L42.0981579,10.6178947 C41.2524614,11.661984 39.9674738,12.2509367 38.6244737,12.21 C36.1581579,12.2186842 34.2563158,10.4326316 34.2563158,7.80710526 Z M40.5523684,7.17894737 C40.425,5.92263158 39.6839474,4.94131579 38.3957895,4.94131579 C37.2031579,4.94131579 36.3694737,5.85894737 36.19,7.17894737 L40.5523684,7.17894737 Z" id="_Compound_Path_5"></path>
                <polygon id="_Compound_Path_6" points="52.8115789 0.755526316 54.9218421 0.755526316 58.3521053 6.50447368 61.7823684 0.755526316 63.8810526 0.755526316 63.8810526 12.0276316 61.9126316 12.0276316 61.9126316 3.94263158 58.3521053 9.67710526 58.2884211 9.67710526 54.7626316 3.97447368 54.7626316 12.0276316 52.8144737 12.0276316"></polygon>
                <path d="M65.2878947,7.82447368 L65.2878947,7.79263158 C65.2791019,5.28903768 67.3015377,3.25234579 69.8051316,3.24355283 C72.3087255,3.23475988 74.3454175,5.25719558 74.3542105,7.76078947 L74.3542105,7.79263158 C74.3499066,8.98816099 73.8643346,10.1315864 73.0070649,10.9648918 C72.1497953,11.7981971 70.9930658,12.2511638 69.7978947,12.2215789 C68.6122744,12.2520296 67.4646297,11.8022424 66.6154318,10.9743017 C65.7662339,10.146361 65.2875038,9.01048493 65.2878947,7.82447368 Z M72.4060526,7.82447368 L72.4060526,7.79263158 C72.4060526,6.29605263 71.3263158,5.05421053 69.8007895,5.05421053 C68.2752632,5.05421053 67.2389474,6.27868421 67.2389474,7.76078947 L67.2389474,7.79263158 C67.2389474,9.27473684 68.3186842,10.5310526 69.8442105,10.5310526 C71.4073684,10.5310526 72.4060526,9.28921053 72.4060526,7.82447368 Z" id="_Compound_Path_7"></path>
                <polygon id="_Compound_Path_8" points="85.2528947 0.272105263 87.2010526 0.272105263 87.2010526 7.29184211 90.7268421 3.52868421 93.0947368 3.52868421 89.7136842 7.00236842 93.2076316 12.0421053 90.9526316 12.0421053 88.3907895 8.37157895 87.1981579 9.61052632 87.1981579 12.0421053 85.25 12.0421053"></polygon>
                <path d="M93.0513158,7.80710526 L93.0513158,7.77526316 C93.0513158,5.34368421 94.7881579,3.34631579 97.2052632,3.34631579 C99.9118421,3.34631579 101.281053,5.47105263 101.281053,7.92 C101.281053,8.09657895 101.263684,8.27315789 101.249211,8.46710526 L94.9994737,8.46710526 C95.2078947,9.85078947 96.1921053,10.6265789 97.4484211,10.6265789 C98.3300568,10.6342799 99.1728806,10.2644909 99.7642105,9.61052632 L100.893158,10.6178947 C100.047461,11.661984 98.7624738,12.2509367 97.4194737,12.21 C94.9502632,12.2186842 93.0513158,10.4326316 93.0513158,7.80710526 Z M99.3473684,7.17894737 C99.22,5.92263158 98.4789474,4.94131579 97.1907895,4.94131579 C95.9981579,4.94131579 95.1644737,5.85894737 94.985,7.17894737 L99.3473684,7.17894737 Z" id="_Compound_Path_9"></path>
                <polygon id="_Path_" points="49.3292105 3.52578947 46.9757895 9.32394737 44.6397368 3.52578947 42.6105263 3.52578947 45.9597368 11.8307895 44.2113158 16.1381579 46.2405263 16.1381579 51.3584211 3.52578947"></polygon>
                <polygon id="_Path_2" points="108.124211 3.52578947 105.770789 9.32394737 103.431842 3.52578947 101.405526 3.52578947 104.754737 11.8307895 103.006316 16.1381579 105.035526 16.1381579 110.153421 3.52578947"></polygon>
                <path d="M83.2757895,6.61736842 L83.2757895,12.0276316 L81.3276316,12.0276316 L81.3276316,7.19631579 C81.3189474,5.87631579 80.6705263,5.11789474 79.5126316,5.11789474 C78.3547368,5.11789474 77.5963158,5.90815789 77.5963158,7.22815789 L77.5963158,12.0276316 L75.6336842,12.0276316 L75.6336842,3.52578947 L77.5818421,3.52578947 L77.5818421,4.39421053 C78.2659634,3.66395898 79.2405517,3.27752091 80.2392105,3.34052632 C82.1555263,3.34631579 83.2757895,4.63447368 83.2757895,6.61736842 Z" id="_Compound_Path_12"></path>
            </g>
            <path d="M25.2791369,11.4007031 C25.0064868,11.4021098 24.7349866,11.4361536 24.4704373,11.5021071 C23.4631121,7.540744 20.2337486,4.53256266 16.2095274,3.80699464 C16.0298164,3.77512482 15.8674967,3.75194677 15.6848871,3.72876872 C15.7138728,2.74370162 15.7602498,1.60507993 17.2124308,0.579451239 L16.9834442,0 C16.9834442,0 14.1573434,0.869176859 13.8298056,3.29418029 C13.6877759,2.63650314 12.3805231,1.81368238 11.7196504,1.65723054 L11.3950111,2.18163392 C11.9795691,2.53441203 12.3744358,3.13123192 12.4703787,3.80699464 C8.44582685,4.53108115 5.21531571,7.53814343 4.20657015,11.4992098 C2.78612108,11.1442955 1.2983765,11.7423005 0.519210312,12.9813592 C-0.259955874,14.2204178 -0.153960485,15.819721 0.781918808,16.945216 C1.7177981,18.0707109 3.27146208,18.4673255 4.63265919,17.9282213 C4.92111111,18.6489854 5.2896041,19.3351031 5.73121528,19.9736842 L8.53992466,18.0817759 L8.51673614,18.0499061 C7.7329334,16.9459665 7.29049413,15.6363735 7.24426616,14.283473 C7.16020777,12.7421327 7.53412265,11.2094842 8.52253327,10.3084375 C10.5515287,8.57008383 12.7660323,9.36682928 14.1515463,11.0240598 L14.5254612,11.0240598 C15.9109752,9.36682928 18.1225802,8.57877559 20.1544742,10.3084375 C21.1399863,11.2094842 21.5167997,12.7421327 21.4327413,14.283473 C21.3865133,15.6363735 20.9440741,16.9459665 20.1602713,18.0499061 L20.1370828,18.0817759 L22.9457922,19.9736842 C23.3874034,19.3351031 23.7558964,18.6489854 24.0443483,17.9282213 C25.3101831,18.4224934 26.7490521,18.1115658 27.6975831,17.1387877 C28.6461142,16.1660096 28.9201187,14.720278 28.3932705,13.4681288 C27.8664223,12.2159795 26.6410263,11.4005588 25.2820355,11.3978059 L25.2791369,11.4007031 Z M3.33120355,15.7813545 C2.80059863,15.7527695 2.3850176,15.3143848 2.3850176,14.7832497 C2.3850176,14.2521146 2.80059863,13.81373 3.33120355,13.785145 C3.5308037,13.7863221 3.72554001,13.8468346 3.89062657,13.9589803 C3.899256,14.4829535 3.935053,15.0061273 3.99787347,15.526396 C3.81459518,15.6904631 3.57723863,15.7812367 3.33120355,15.7813545 Z M25.3458039,15.7813545 C25.0997688,15.7812367 24.8624123,15.6904631 24.679134,15.526396 C24.7419545,15.0061273 24.7777515,14.4829535 24.7863809,13.9589803 C25.0924485,13.7516273 25.4881798,13.7305878 25.8145265,13.9043178 C26.1408731,14.0780478 26.3442471,14.4180198 26.3429102,14.7875956 C26.3421426,15.0519256 26.2363537,15.3051244 26.0488162,15.4914906 C25.8612787,15.6778568 25.6073547,15.782124 25.3429054,15.7813545 L25.3458039,15.7813545 Z" id="_Compound_Path_13"></path>
        </g>
    </g>
</svg>