<?xml version="1.0" encoding="iso-8859-1"?>
<!-- Generator: Adobe Illustrator 16.0.0, SVG Export Plug-In . SVG Version: 6.00 Build 0)  -->
<!DOCTYPE svg PUBLIC "-//W3C//DTD SVG 1.1//EN" "http://www.w3.org/Graphics/SVG/1.1/DTD/svg11.dtd">
<svg version="1.1" id="Capa_1" xmlns="http://www.w3.org/2000/svg" xmlns:xlink="http://www.w3.org/1999/xlink" x="0px" y="0px"
	 width="31.842px" height="31.841px" viewBox="0 0 31.842 31.841" style="enable-background:new 0 0 31.842 31.841;"
	 xml:space="preserve">
<g>
	<g>
		<polygon points="16.288,27.583 16.288,27.525 16.297,27.527 18.338,18.309 16.277,17.853 14.591,25.475 6.847,25.475 
			6.847,27.583 10.319,27.583 9.879,30.062 6.746,30.062 5.675,31.668 17.729,31.668 16.656,30.062 13.321,30.062 12.881,27.583 		
			"/>
		<circle cx="13.575" cy="10.475" r="3.214"/>
		<path d="M7.224,24.671h1.799h2.846h1.915c0,0,1.681-8.223,1.866-9.13s0.108-1.345-0.494-1.35c-0.603-0.006-3.014,0-3.014,0v0.001
			l-0.005-0.002c0,0-2.606,5.497-4.918,5.349c-1.256,0.019-1.221,1.303,1.325,1.387c0.586,0.021,1.174-0.297,1.732-0.793
			L9.84,21.714c-1.632-0.004-3.727,0.006-4.199,0.07c-0.657,0.093-3.651,4.957-4.684,6.664H0v1.449h4.677v-1.449H4.6L7.224,24.671z"
			/>
		<ellipse cx="28.434" cy="3.685" rx="3.408" ry="3.512"/>
		<path d="M30.675,8.704c-1.231-1.001-3.373-0.442-4.437-0.145c-1.273,0.488-3.707,0.985-6.512,0.939
			c-0.021-0.045-0.039-0.086-0.055-0.122c-0.244-0.61-0.955-3.403-1.811-4.853c-0.854-1.448-1.066-1.517-1.479-1.378
			c-0.414,0.138-1.657,0.867-1.657,0.867l0.074,0.163c0,0,1.046-0.37,1.471-0.521c0.032-0.013,0.073,0.004,0.121,0.044l-1.439,0.708
			l0.064,0.143l1.564-0.627c0.021,0.03,0.043,0.063,0.063,0.098l-1.491,0.734l0.064,0.143l1.573-0.633
			c0.021,0.035,0.04,0.072,0.061,0.109l-1.507,0.74l0.065,0.144l1.576-0.628c0.021,0.044,0.043,0.087,0.064,0.132l-1.55,0.762
			l0.065,0.144l1.601-0.665c0.022,0.05,0.047,0.101,0.069,0.151l-1.556,0.766l0.064,0.142l1.605-0.655
			c0.021,0.046,0.041,0.092,0.062,0.137l-1.556,0.767l0.065,0.143l1.595-0.667c0.02,0.046,0.039,0.093,0.059,0.139l-1.543,0.76
			l0.064,0.144l1.59-0.646c0.024,0.059,0.049,0.118,0.07,0.176l-1.529,0.751l0.063,0.145l1.571-0.626
			c0.02,0.051,0.037,0.101,0.057,0.149l-1.508,0.741l0.064,0.143l1.539-0.62c0.018,0.045,0.032,0.091,0.047,0.135l-1.535,0.755
			l0.064,0.143l1.568-0.607c0.016,0.048,0.027,0.095,0.041,0.138l-1.54,0.757l0.065,0.144l1.543-0.621
			c0.014,0.084,0.012,0.138-0.009,0.15c-0.205,0.125-1.433,0.745-1.433,0.745s0.021,0.064,0.05,0.138
			c0.373-0.031,1.349-0.146,1.635,0.43c0.367,0.735,0.759,3.51,1.029,4.143c0.271,0.631,1.758,0.004,1.69-0.899
			c-0.015-0.263-0.228-0.731-0.492-1.237c1.98-0.321,5.476-0.814,5.455-0.294c-0.028,0.726-0.348,8.018-0.063,8.26l0,0l-0.583,5.4
			l0.516,5.313h-1.504V31.6h5.111v-0.338v-1.229V19.998c0.602-0.118,1.061-0.436,1.139-1.094
			C31.057,16.837,32.048,9.819,30.675,8.704z M20.357,13.103c-0.146,0.066-0.318,0.002-0.385-0.145s-0.002-0.319,0.145-0.387
			c0.146-0.065,0.32-0.001,0.388,0.146C20.57,12.862,20.506,13.035,20.357,13.103z"/>
	</g>
</g>
<g>
</g>
<g>
</g>
<g>
</g>
<g>
</g>
<g>
</g>
<g>
</g>
<g>
</g>
<g>
</g>
<g>
</g>
<g>
</g>
<g>
</g>
<g>
</g>
<g>
</g>
<g>
</g>
<g>
</g>
</svg>
